<svg width="356" height="48" viewBox="0 0 356 48" fill="none" xmlns="http://www.w3.org/2000/svg">
<path d="M40.7411 48L51.176 42.3473L28.0085 0L17.5736 5.94012L19.2968 9.00599L0.916016 42.3473L11.3509 48L25.9981 21.6527L40.7411 48Z" fill="#FFC736"/>
<path d="M106.748 0.0958128H93.728V9.48503L80.5168 23.0898L67.1141 9.48503V0.0958128H54.0944V48H67.1141V27.7844L80.5168 41.006L93.728 27.7844V48H106.748V0.0958128Z" fill="#FFC736"/>
<path fill-rule="evenodd" clip-rule="evenodd" d="M135.335 48C131.953 48 128.794 47.3932 125.858 46.1796C122.986 44.9022 120.433 43.1776 118.199 41.006C116.029 38.7705 114.306 36.2156 113.029 33.3413C111.817 30.4032 111.211 27.2415 111.211 23.8563C111.211 20.5988 111.817 17.5329 113.029 14.6587C114.306 11.7206 116.029 9.16567 118.199 6.99401C120.433 4.82236 122.986 3.12974 125.858 1.91617C128.794 0.638723 131.953 0 135.335 0C138.59 0 141.654 0.638723 144.526 1.91617C147.462 3.12974 150.014 4.82236 152.184 6.99401C154.354 9.16567 156.046 11.7206 157.258 14.6587C158.535 17.5329 159.173 20.5988 159.173 23.8563C159.173 27.2415 158.535 30.4032 157.258 33.3413C156.046 36.2156 154.354 38.7705 152.184 41.006C150.014 43.1776 147.462 44.9022 144.526 46.1796C141.654 47.3932 138.59 48 135.335 48ZM135.335 12.8383C133.804 12.8383 132.336 13.1577 130.932 13.7964C129.591 14.3713 128.411 15.1697 127.389 16.1916C126.368 17.1497 125.539 18.2994 124.9 19.6407C124.326 20.982 124.039 22.3872 124.039 23.8563C124.039 25.3892 124.326 26.8583 124.9 28.2635C125.539 29.6048 126.368 30.7864 127.389 31.8084C128.411 32.8303 129.591 33.6607 130.932 34.2994C132.336 34.8743 133.804 35.1617 135.335 35.1617C136.803 35.1617 138.207 34.8743 139.548 34.2994C140.888 33.6607 142.037 32.8303 142.994 31.8084C144.015 30.7864 144.813 29.6048 145.387 28.2635C146.026 26.8583 146.345 25.3892 146.345 23.8563C146.345 22.3872 146.026 20.982 145.387 19.6407C144.813 18.2994 144.015 17.1497 142.994 16.1916C142.037 15.1697 140.888 14.3713 139.548 13.7964C138.207 13.1577 136.803 12.8383 135.335 12.8383Z" fill="#FFC736"/>
<path d="M210.737 0.0958128H198.1V22.994L175.507 0.383237V0.0958128H162.583V48H175.507V18.491L198.1 41.1018V48H210.737V0.0958128Z" fill="#FFC736"/>
<path d="M33.6512 36.0239L26.1895 43.2096L18.7278 36.0239H33.6512Z" fill="#FFC736"/>
<path d="M256.05 17.9161H260.549V27.2095V30.5628V35.3532V43.7843V47.9999H234.414H224.075H221.777V30.5628H216.033V17.9161H221.777V13.0298V0.0957031H256.05V6.51486V13.0298V17.9161ZM234.414 13.0298V17.9161H243.126V13.0298H234.414ZM247.625 35.3532V30.5628H234.414V35.3532H247.625Z" fill="white"/>
<path d="M283.977 35.3532H310.112V47.9999H283.977H273.638H270.957V13.0298H264.926V0.0957031H305.613V13.0298H283.977V17.9161H299.869V30.467H283.977V35.3532Z" fill="white"/>
<path d="M355.916 0.0957031V12.7424H340.79V47.9999H327.962V12.7424H312.836V0.0957031H327.962H340.79H355.916Z" fill="white"/>
</svg>
